#!OML:ASF I:\Actors\actors\Patient Classification 1\Patient 1\Session 1\Subject1.ASF
:FULLY-SPECIFIED
:DEGREES
914
root -0.072914 17.6659 9.20713 25.8862 -25.7435 -6.00673
lowerback 7.99636 -6.9869 16.1634
upperback -7.45763 -6.18203 11.3309
thorax -13.5193 -3.7705 5.2444
lowerneck -9.66063 -7.6738 -2.33096
upperneck 4.9389 -9.47197 -10.1218
head 2.91359 -5.23257 -3.46859
rclavicle -3.18055e-015 -1.27222e-014
rhumerus 28.9859 7.28136 -30.7674
rradius 105.841
rwrist 3.94566
rhand 44.5844 -63.1447
rfingers 7.12502
rthumb 66.0685 -68.4358
lclavicle -3.18055e-015 -1.27222e-014
lhumerus 23.5439 -33.4448 73.9457
lradius 113.076
lwrist 8.03026
lhand 53.8805 2.96252
lfingers 7.12502
lthumb 72.2576 -10.2969
rfemur -30.0057 32.5186 5.75651
rtibia 8.56641
rfoot -8.21959 -12.4474
rtoes -6.83862
lfemur 0.79731 -40.5544 -15.3615
ltibia -10.8399
lfoot -80.5614 40.7624
ltoes 54.5138
915
root -0.0891766 17.6749 9.21477 25.9125 -26.6746 -4.83663
lowerback 7.40319 -6.83676 15.2242
upperback -7.73529 -6.23021 11.2355
thorax -13.3524 -3.73545 5.55649
lowerneck -9.78096 -7.66492 -2.30917
upperneck 5.02713 -9.44018 -10.4332
head 2.95376 -5.2387 -3.59051
rclavicle 9.62118e-014 -2.54444e-014
rhumerus 28.0947 8.62261 -30.1804
rradius 107.15
rwrist 2.73607
rhand 46.3427 -61.942
rfingers 7.12502
rthumb 67.3949 -64.5473
lclavicle 9.62118e-014 -2.54444e-014
lhumerus 23.7175 -33.8194 74.2888
lradius 112.899
lwrist 7.07286
lhand 53.7145 2.72157
lfingers 7.12502
lthumb 72.1698 -10.0988
rfemur -31.049 32.5974 3.76319
rtibia 8.77635
rfoot -8.32102 -12.504
rtoes -7.01733
lfemur 0.0640557 -40.071 -16.2703
ltibia -10.7244
lfoot -80.2839 40.4813
ltoes 54.5209
916
root -0.103264 17.6778 9.2212 25.907 -27.3915 -4.24405
lowerback 7.06043 -6.8909 14.7569
upperback -7.89025 -6.42483 11.3422
thorax -13.248 -3.79203 5.92431
lowerneck -9.67834 -7.45829 -2.44479
upperneck 4.93604 -9.15878 -10.5598
head 2.91807 -5.10484 -3.58711
rclavicle 8.26944e-014 -4.13472e-014
rhumerus 27.523 9.90686 -30.3884
rradius 108.91
rwrist 0.0771499
rhand 46.0866 -62.787
rfingers 7.12502
rthumb 67.2051 -65.8035
lclavicle 8.26944e-014 -4.13472e-014
lhumerus 23.6165 -33.8207 74.5176
lradius 112.916
lwrist 6.72962
lhand 53.7018 3.0879
lfingers 7.12502
lthumb 72.163 -9.69915
rfemur -31.6267 32.7408 2.69866
rtibia 8.88728
rfoot -8.39264 -12.4286
rtoes -7.12936
lfemur -0.222913 -39.582 -16.8196
ltibia -10.7124
lfoot -80.0217 40.36
ltoes 54.5213
917
root -0.113824 17.6765 9.2281 25.8687 -27.9534 -4.25183
lowerback 7.0711 -7.06661 14.8613
upperback -7.96646 -6.62854 11.5077
thorax -13.3512 -3.89178 6.12847
lowerneck -9.63934 -7.15408 -2.46423
upperneck 5.13445 -8.72812 -10.6529
head 2.9985 -4.90335 -3.60521
rclavicle 1.41535e-013 -8.26944e-014
rhumerus 26.8826 11.0773 -31.38
rradius 110.516
rwrist -1.77129
rhand 45.7897 -63.23
rfingers 7.12502
rthumb 66.9836 -66.7143
lclavicle 1.41535e-013 -8.26944e-014
lhumerus 23.3368 -33.7043 74.5797
lradius 112.944
lwrist 6.91087
lhand 53.6507 3.15123
lfingers 7.12502
lthumb 72.1357 -9.50171
rfemur -31.6782 32.8805 2.63448
rtibia 8.88991
rfoot -8.38134 -12.0951
rtoes -7.76523
lfemur -0.0592604 -39.0349 -17.049
ltibia -10.7415
lfoot -79.7689 40.4611
ltoes 54.3996
918
root -0.123489 17.675 9.23345 25.8501 -28.7446 -4.18784
lowerback 7.10019 -7.19416 14.8113
upperback -8.08268 -6.78854 11.5569
thorax -13.5009 -3.96499 6.277
lowerneck -9.7463 -6.85269 -2.24758
upperneck 5.66913 -8.28429 -10.8261
head 3.21246 -4.7082 -3.71826
rclavicle -2.38542e-015 6.36111e-014
rhumerus 25.9559 12.0991 -32.9239
rradius 111.564
rwrist -1.74448
rhand 46.1513 -62.9367
rfingers 7.12502
rthumb 67.2532 -65.85
lclavicle -2.38542e-015 6.36111e-014
lhumerus 22.9294 -33.6233 74.5872
lradius 112.937
lwrist 7.14178
lhand 53.995 3.02421
lfingers 7.12502
lthumb 72.3176 -10.5408
rfemur -31.8083 32.7755 2.50212
rtibia 8.86652
rfoot -8.28337 -11.3963
rtoes -9.14126
lfemur 0.0442677 -38.3039 -17.3931
ltibia -10.7773
lfoot -79.4962 40.4977
ltoes 54.3639
919
root -0.133849 17.6716 9.235 25.9916 -29.8714 -4.11768
lowerback 6.86156 -6.8891 14.7107
upperback -8.04674 -6.48942 11.1348
thorax -13.3287 -3.84306 5.71982
lowerneck -10.3319 -6.88317 -0.996478
upperneck 6.76438 -8.31829 -11.4932
head 3.25438 -4.79399 -3.80556
rclavicle 7.95139e-016 -3.18055e-014
rhumerus 23.9676 12.0539 -35.0546
rradius 112.184
rwrist -0.530118
rhand 46.355 -62.5366
rfingers 7.12502
rthumb 67.404 -65.122
lclavicle 7.95139e-016 -3.18055e-014
lhumerus 23.4346 -34.4948 73.9517
lradius 112.907
lwrist 7.83379
lhand 54.7825 2.88759
lfingers 7.12502
lthumb 72.7157 -12.835
rfemur -32.2866 32.6329 2.1607
rtibia 8.89073
rfoot -8.17963 -10.4046
rtoes -10.0494
lfemur 0.0709953 -37.2458 -17.7671
ltibia -10.9533
lfoot -79.2622 40.3371
ltoes 54.5224
920
root -0.14399 17.667 9.23673 26.2893 -31.1843 -4.28851
lowerback 6.59968 -6.88496 14.414
upperback -7.99271 -6.60058 11.1997
thorax -13.0466 -3.874 5.90639
lowerneck -10.8032 -6.51888 -0.411983
upperneck 7.35599 -7.80316 -11.9513
head 3.49887 -4.58274 -4.05266
rclavicle 2.3059e-014 -3.18055e-014
rhumerus 23.2655 12.6674 -36.9975
rradius 112.585
rwrist 0.553119
rhand 45.9765 -61.8866
rfingers 7.12502
rthumb 67.1232 -65.0776
lclavicle 2.3059e-014 -3.18055e-014
lhumerus 23.2879 -34.4128 73.523
lradius 112.857
lwrist 7.39364
lhand 54.6194 2.1443
lfingers 7.12502
lthumb 72.6354 -13.1231
rfemur -32.8994 32.617 1.97374
rtibia 8.94471
rfoot -8.10657 -9.28813
rtoes -10.1263
lfemur 0.136691 -35.9211 -17.9974
ltibia -11.1835
lfoot -79.0396 40.0943
ltoes 54.6683
921
root -0.153807 17.6621 9.24191 26.6622 -32.5344 -4.76471
lowerback 6.43057 -7.14805 14.1311
upperback -7.94933 -7.02705 11.6422
thorax -12.7985 -4.03933 6.60504
lowerneck -10.8995 -5.86202 -0.403998
upperneck 7.59404 -6.86258 -12.4238
head 3.63164 -4.16218 -4.16607
rclavicle -1.03368e-014 -6.67916e-014
rhumerus 23.4855 13.9721 -38.6271
rradius 112.767
rwrist 1.25044
rhand 45.6965 -61.6099
rfingers 7.12502
rthumb 66.9138 -65.2391
lclavicle -1.03368e-014 -6.67916e-014
lhumerus 22.5755 -33.4973 73.3766
lradius 112.923
lwrist 7.2068
lhand 54.0757 2.38881
lfingers 7.12502
lthumb 72.3596 -11.3926
rfemur -33.3752 32.6939 2.16367
rtibia 8.94527
rfoot -8.02601 -8.13156
rtoes -10.2085
lfemur 0.345312 -34.46 -18.0651
ltibia -11.3945
lfoot -78.8592 39.6539
ltoes 54.9103
922
root -0.163863 17.6557 9.23531 26.7285 -34.1333 -4.88321
lowerback 6.5734 -7.62394 13.3354
upperback -8.03679 -7.72259 12.1049
thorax -12.798 -4.29031 7.72163
lowerneck -10.5461 -5.03078 -0.872049
upperneck 7.65884 -5.66687 -12.7289
head 3.67958 -3.60453 -4.11497
rclavicle 4.77083e-014 -1.33583e-013
rhumerus 24.1077 16.0094 -40.0822
rradius 112.721
rwrist 1.54703
rhand 45.5803 -62.0012
rfingers 7.12502
rthumb 66.8264 -65.81
lclavicle 4.77083e-014 -1.33583e-013
lhumerus 21.1456 -32.064 73.3843
lradius 113.261
lwrist 7.41612
lhand 53.6244 3.36347
lfingers 7.12502
lthumb 72.1216 -9.22054
rfemur -33.8122 32.6781 2.05707
rtibia 9.01699
rfoot -7.91447 -6.84215
rtoes -10.8358
lfemur 0.605436 -32.9216 -18.5681
ltibia -11.5202
lfoot -78.6739 39.2115
ltoes 55.1265
923
root -0.173183 17.6487 9.21341 26.3967 -35.9101 -4.50698
lowerback 6.98804 -7.70789 12.1239
upperback -8.0844 -7.92755 11.934
thorax -12.9189 -4.2934 8.25914
lowerneck -10.6574 -4.58683 -0.291437
upperneck 8.15539 -5.05869 -13.1618
head 3.86076 -3.33696 -4.3291
rclavicle 2.8625e-014 -4.92986e-014
rhumerus 23.5263 17.0253 -41.7422
rradius 112.679
rwrist 1.61378
rhand 44.858 -61.9839
rfingers 7.12502
rthumb 66.2784 -66.8775
lclavicle 2.8625e-014 -4.92986e-014
lhumerus 20.4879 -31.8746 72.9636
lradius 113.506
lwrist 7.71353
lhand 53.4883 3.63023
lfingers 7.12502
lthumb 72.0483 -8.59919
rfemur -34.2084 32.5309 1.57614
rtibia 9.18469
rfoot -7.8201 -5.45126
rtoes -11.5017
lfemur 0.779002 -31.4096 -19.5231
ltibia -11.4523
lfoot -78.3471 39.2107
ltoes 55.0179
924
root -0.186096 17.6431 9.19807 26.3834 -37.4049 -4.51962
lowerback 7.15007 -7.81897 11.4511
upperback -8.12219 -8.15474 11.811
thorax -12.9542 -4.35299 8.53912
lowerneck -10.8785 -4.11669 0.233657
upperneck 8.66637 -4.40834 -13.4555
head 4.07841 -3.04563 -4.49312
rclavicle -5.64548e-014 -1.59028e-014
rhumerus 23.0633 17.9961 -43.1635
rradius 112.607
rwrist 2.11464
rhand 44.4205 -61.2171
rfingers 7.12502
rthumb 65.9422 -66.7428
lclavicle -5.64548e-014 -1.59028e-014
lhumerus 19.7982 -31.6592 72.6427
lradius 113.588
lwrist 7.66969
lhand 53.4792 3.73141
lfingers 7.12502
lthumb 72.0434 -8.47427
rfemur -34.5628 32.5852 1.44825
rtibia 9.20376
rfoot -7.76365 -4.34266
rtoes -11.8303
lfemur 0.768905 -29.9883 -19.9304
ltibia -11.3195
lfoot -77.8761 39.4571
ltoes 54.8317
